<svg width="256" height="256" viewBox="0 0 256 256" fill="none" xmlns="http://www.w3.org/2000/svg">
<path d="M256 0H0V256H256V0Z" fill="#00023D"/>
<path d="M228.625 98.4355C187.89 126.96 149.238 126.96 112.753 113.19C151.321 98.5205 189.973 98.5205 228.625 112.338V98.4355Z" fill="#A7DEF9"/>
<path d="M201.248 127.385C168.96 147.98 139.112 147.98 112.753 138.85C141.28 127.385 171.128 127.385 201.248 138.215V127.385Z" fill="#A7DEF9"/>
<path d="M228.625 81.333C174.195 120.698 127.135 127.045 92.5484 113.105C129.208 81.333 178.445 81.333 228.625 99.443V81.333Z" fill="white"/>
<path d="M228.625 158.333C148.405 214.666 102.825 212.443 92.5484 158.333H228.625Z" fill="white"/>
</svg> 