<svg width="256" height="256" viewBox="0 0 256 256" fill="none" xmlns="http://www.w3.org/2000/svg">
<g clip-path="url(#clip0_303_8)">
<path d="M256 0H0V256H256V0Z" fill="#141414"/>
<path d="M201.218 78.4102C184.282 68.6153 151.721 66.4487 124.821 73.8974C121.282 74.8718 118.026 77.0384 118.026 80.5769C118.026 84.1153 120.99 86.282 124.528 85.3076C148.246 78.8333 177.595 80.7179 191.077 88.7435C193.456 90.0461 196.421 88.1615 197.072 85.5948C197.723 83.0282 195.838 80.1743 201.218 78.4102ZM199.128 102.32C202.092 104.192 202.959 108.018 201.074 110.982C182.713 139.756 154.585 144.91 127.39 137.461C123.564 136.487 119.738 138.371 118.764 142.197C117.789 146.023 119.674 149.848 123.5 150.823C155.061 159.259 187.333 153.243 208.261 119.738C210.146 116.774 209.279 112.948 206.315 111.076C203.351 109.205 196.261 100.233 199.128 102.32ZM82.9051 128C82.9051 92.5487 112.554 64.282 148.005 64.282C183.456 64.282 211.723 92.5487 211.723 128C211.723 163.451 183.456 191.718 148.005 191.718C112.554 191.718 82.9051 163.451 82.9051 128ZM148.005 44.5641C101.441 44.5641 63.282 82.723 63.282 129.282C63.282 175.846 101.441 214.005 148.005 214.005C194.569 214.005 232.728 175.846 232.728 129.282C232.728 82.723 194.569 44.5641 148.005 44.5641V44.5641Z" fill="#1DB954"/>
</g>
<defs>
<clipPath id="clip0_303_8">
<rect width="256" height="256" fill="white"/>
</clipPath>
</defs>
</svg> 