<svg width="256" height="256" viewBox="0 0 256 256" fill="none" xmlns="http://www.w3.org/2000/svg">
<g clip-path="url(#clip0_303_23)">
<path d="M256 0H0V256H256V0Z" fill="white"/>
<path d="M222.064 128C222.064 180.013 180.013 222.064 128 222.064C75.9871 222.064 33.9359 180.013 33.9359 128C33.9359 75.9871 75.9871 33.9359 128 33.9359C180.013 33.9359 222.064 75.9871 222.064 128Z" fill="#E44332"/>
<path d="M101.441 82.9051L128 108.82L181.569 55.2512L154.669 28.3512L101.441 81.3333V82.9051Z" fill="white"/>
<path d="M101.441 113.846L128 139.756L201.249 66.5076L228.149 93.4076L128.321 193.236L75.3384 140.251L101.441 113.846Z" fill="white"/>
</g>
<defs>
<clipPath id="clip0_303_23">
<rect width="256" height="256" fill="white"/>
</clipPath>
</defs>
</svg> 